<svg width="20" height="20" viewBox="0 0 20 20" fill="none" xmlns="http://www.w3.org/2000/svg">
<path fill-rule="evenodd" clip-rule="evenodd" d="M7.77779 2.22223C4.70954 2.22223 2.22223 4.70954 2.22223 7.77779C2.22223 10.846 4.70954 13.3334 7.77779 13.3334C9.31223 13.3334 10.6996 12.7128 11.7061 11.7061C12.7128 10.6996 13.3334 9.31223 13.3334 7.77779C13.3334 4.70954 10.846 2.22223 7.77779 2.22223ZM0 7.77779C0 3.48224 3.48224 0 7.77779 0C12.0733 0 15.5556 3.48224 15.5556 7.77779C15.5556 9.52435 14.9789 11.1377 14.007 12.4357L19.6746 18.1032C20.1085 18.5371 20.1085 19.2407 19.6746 19.6746C19.2407 20.1085 18.5371 20.1085 18.1032 19.6746L12.4357 14.007C11.1377 14.9789 9.52435 15.5556 7.77779 15.5556C3.48224 15.5556 0 12.0733 0 7.77779Z" fill="#969696"/>
</svg>
