<svg width="20" height="20" viewBox="0 0 20 20" fill="none" xmlns="http://www.w3.org/2000/svg">
<path fill-rule="evenodd" clip-rule="evenodd" d="M19.7338 1.55191C20.0887 1.1969 20.0887 0.621295 19.7338 0.266277C19.3787 -0.0887591 18.8031 -0.0887591 18.448 0.266277L10 8.71435L1.55191 0.266277C1.1969 -0.0887591 0.621295 -0.0887591 0.266277 0.266277C-0.0887591 0.621295 -0.0887591 1.1969 0.266277 1.55191L8.71435 10L0.266277 18.448C-0.0887591 18.8031 -0.0887591 19.3787 0.266277 19.7338C0.621295 20.0887 1.1969 20.0887 1.55191 19.7338L10 11.2857L18.448 19.7338C18.8031 20.0887 19.3787 20.0887 19.7338 19.7338C20.0887 19.3787 20.0887 18.8031 19.7338 18.448L11.2857 10L19.7338 1.55191Z" fill="#4474D1"/>
</svg>
