<svg width="155" height="43" viewBox="0 0 155 43" fill="none" xmlns="http://www.w3.org/2000/svg">
<path d="M1.57919 21.4467H17.6354L20.1598 9.55374C20.288 8.94978 20.8257 8.52094 21.4463 8.53989C22.0636 8.55627 22.581 9.01122 22.6767 9.62107L24.7792 23.0228L26.0916 18.8399C26.2444 18.353 26.6717 18.0032 27.1791 17.95C27.6866 17.8967 28.1774 18.1497 28.428 18.5944L30.2704 21.8625L48.2797 21.723C48.9999 20.3215 49.5304 18.7862 49.7923 17.0905C50.5225 12.3682 49.302 7.61718 46.5283 4.38131C44.071 1.51489 40.5776 0 36.4259 0C29.9836 0 26.3233 4.32601 24.9999 6.27741C23.6768 4.32601 20.0161 0 13.5738 0C9.42218 0 5.92876 1.51489 3.47145 4.38131C0.697961 7.61692 -0.522498 12.3682 0.207678 17.0905C0.452692 18.6748 0.930174 20.1203 1.57919 21.4467Z" fill="#4474D1"/>
<path d="M29.5335 24.4284C29.0732 24.421 28.6372 24.1826 28.4085 23.7771L27.6471 22.4266L25.5815 29.01C25.4131 29.5466 24.9161 29.9068 24.3608 29.9068C24.3291 29.9068 24.2973 29.9058 24.2653 29.9032C23.6724 29.8592 23.1877 29.4124 23.0956 28.8251L21.2207 16.875L19.9222 22.9929C19.7967 23.5843 19.2744 24.0073 18.67 24.0073H3.13477C6.17785 28.1579 10.8871 30.9534 14.6548 33.1872C16.5014 34.2822 18.2457 35.3166 19.4588 36.3061C23.9379 39.96 24.3478 41.8037 24.3629 41.8805C24.4023 42.2002 24.6727 42.4529 24.9968 42.4529C25.3276 42.4529 25.6028 42.2123 25.6327 41.8828C25.6358 41.8646 25.9835 40.021 30.5374 36.3061C31.7504 35.3166 33.4947 34.2822 35.3414 33.1872C39.0209 31.0054 43.5994 28.2885 46.646 24.2961L29.5335 24.4284Z" fill="#4474D1"/>
<path d="M62.333 28H64.6973V23.2627L69.0303 15.2031H66.6748L64.0469 20.1602C63.959 20.3301 63.8799 20.4912 63.8096 20.6436C63.7451 20.79 63.6836 20.9424 63.625 21.1006H63.5723C63.5137 20.9424 63.4492 20.7871 63.3789 20.6348C63.3145 20.4824 63.2383 20.3242 63.1504 20.1602L60.5664 15.2031H57.9385L62.333 23.3506V28ZM68.4062 23.5615C68.4062 24.9795 68.8281 26.1162 69.6719 26.9717C70.5215 27.8271 71.6348 28.2549 73.0117 28.2549C74.3887 28.2549 75.499 27.8271 76.3428 26.9717C77.1865 26.1162 77.6084 24.9795 77.6084 23.5615V23.2803C77.6084 21.8623 77.1865 20.7256 76.3428 19.8701C75.499 19.0146 74.3887 18.5869 73.0117 18.5869C71.6348 18.5869 70.5215 19.0146 69.6719 19.8701C68.8281 20.7256 68.4062 21.8623 68.4062 23.2803V23.5615ZM70.7441 23.1836C70.7441 22.3105 70.9404 21.6191 71.333 21.1094C71.7256 20.5996 72.2852 20.3447 73.0117 20.3447C73.7324 20.3447 74.2891 20.5996 74.6816 21.1094C75.0742 21.6191 75.2705 22.3105 75.2705 23.1836V23.6494C75.2705 24.5283 75.0771 25.2227 74.6904 25.7324C74.3037 26.2422 73.7441 26.4971 73.0117 26.4971C72.2734 26.4971 71.7109 26.2422 71.3242 25.7324C70.9375 25.2227 70.7441 24.5283 70.7441 23.6494V23.1836ZM79.3398 24.5723C79.3398 25.8672 79.627 26.793 80.2012 27.3496C80.7754 27.9062 81.5195 28.1846 82.4336 28.1846C83.0195 28.1846 83.5498 28.0703 84.0244 27.8418C84.499 27.6133 84.8799 27.2998 85.167 26.9014H85.2109L85.2725 28H87.4258V18.8506H85.1406V25.0908C84.959 25.4658 84.6982 25.7764 84.3584 26.0225C84.0244 26.2686 83.6406 26.3916 83.207 26.3916C82.7148 26.3916 82.3281 26.2598 82.0469 25.9961C81.7715 25.7266 81.6338 25.2637 81.6338 24.6074V18.8506H79.3398V24.5723ZM89.7461 28H92.0488V21.9531C92.207 21.5664 92.4561 21.25 92.7959 21.0039C93.1357 20.752 93.5225 20.626 93.9561 20.626C94.1025 20.626 94.2373 20.6348 94.3604 20.6523C94.4834 20.6641 94.6006 20.6816 94.7119 20.7051V18.7188C94.6533 18.6953 94.5566 18.6689 94.4219 18.6396C94.293 18.6104 94.167 18.5957 94.0439 18.5957C93.5928 18.5957 93.1914 18.7275 92.8398 18.9912C92.4941 19.249 92.2188 19.5596 92.0137 19.9229H91.9697L91.917 18.8506H89.7461V28ZM100.671 28H104.784C106.472 28 107.872 27.4668 108.985 26.4004C110.099 25.334 110.655 23.8662 110.655 21.9971V21.1973C110.655 19.3281 110.096 17.8633 108.977 16.8027C107.863 15.7363 106.466 15.2031 104.784 15.2031H100.671V28ZM103.018 26.207V17.0049H104.74C105.795 17.0107 106.645 17.3682 107.289 18.0771C107.934 18.7803 108.256 19.8027 108.256 21.1445V22.0586C108.256 23.4004 107.934 24.4287 107.289 25.1436C106.65 25.8525 105.801 26.207 104.74 26.207H103.018ZM112.193 23.5615C112.193 24.9795 112.615 26.1162 113.459 26.9717C114.309 27.8271 115.422 28.2549 116.799 28.2549C118.176 28.2549 119.286 27.8271 120.13 26.9717C120.974 26.1162 121.396 24.9795 121.396 23.5615V23.2803C121.396 21.8623 120.974 20.7256 120.13 19.8701C119.286 19.0146 118.176 18.5869 116.799 18.5869C115.422 18.5869 114.309 19.0146 113.459 19.8701C112.615 20.7256 112.193 21.8623 112.193 23.2803V23.5615ZM114.531 23.1836C114.531 22.3105 114.728 21.6191 115.12 21.1094C115.513 20.5996 116.072 20.3447 116.799 20.3447C117.52 20.3447 118.076 20.5996 118.469 21.1094C118.861 21.6191 119.058 22.3105 119.058 23.1836V23.6494C119.058 24.5283 118.864 25.2227 118.478 25.7324C118.091 26.2422 117.531 26.4971 116.799 26.4971C116.061 26.4971 115.498 26.2422 115.111 25.7324C114.725 25.2227 114.531 24.5283 114.531 23.6494V23.1836ZM122.705 23.5615C122.705 24.9854 123.115 26.125 123.936 26.9805C124.756 27.8301 125.854 28.2549 127.231 28.2549C128.532 28.2549 129.531 27.9209 130.229 27.2529C130.926 26.585 131.274 25.8027 131.274 24.9062V24.8096H129.051V24.8975C129.051 25.3311 128.907 25.7119 128.62 26.04C128.339 26.3682 127.87 26.5322 127.214 26.5322C126.476 26.5322 125.928 26.2656 125.57 25.7324C125.219 25.1992 125.043 24.5049 125.043 23.6494V23.1836C125.043 22.3281 125.225 21.6367 125.588 21.1094C125.951 20.582 126.496 20.3184 127.223 20.3184C127.844 20.3184 128.304 20.4766 128.603 20.793C128.901 21.1035 129.051 21.4844 129.051 21.9355V22.0322H131.283L131.274 21.9092C131.239 21.0127 130.882 20.2363 130.202 19.5801C129.522 18.918 128.532 18.5869 127.231 18.5869C125.849 18.5869 124.747 19.0117 123.927 19.8613C123.112 20.7109 122.705 21.8506 122.705 23.2803V23.5615ZM131.767 20.5381H137.312V18.8506H131.767V20.5381ZM133.226 25.416C133.226 26.3945 133.466 27.1123 133.946 27.5693C134.427 28.0264 135.068 28.2549 135.871 28.2549C136.17 28.2549 136.445 28.2285 136.697 28.1758C136.949 28.123 137.146 28.0615 137.286 27.9912V26.3037C137.151 26.3564 137.011 26.4004 136.864 26.4355C136.724 26.4648 136.583 26.4795 136.442 26.4795C136.132 26.4795 135.897 26.3975 135.739 26.2334C135.581 26.0693 135.502 25.7705 135.502 25.3369V16.5742H133.234V19.4658L133.226 19.7119V25.416ZM138.174 23.5615C138.174 24.9795 138.596 26.1162 139.439 26.9717C140.289 27.8271 141.402 28.2549 142.779 28.2549C144.156 28.2549 145.267 27.8271 146.11 26.9717C146.954 26.1162 147.376 24.9795 147.376 23.5615V23.2803C147.376 21.8623 146.954 20.7256 146.11 19.8701C145.267 19.0146 144.156 18.5869 142.779 18.5869C141.402 18.5869 140.289 19.0146 139.439 19.8701C138.596 20.7256 138.174 21.8623 138.174 23.2803V23.5615ZM140.512 23.1836C140.512 22.3105 140.708 21.6191 141.101 21.1094C141.493 20.5996 142.053 20.3447 142.779 20.3447C143.5 20.3447 144.057 20.5996 144.449 21.1094C144.842 21.6191 145.038 22.3105 145.038 23.1836V23.6494C145.038 24.5283 144.845 25.2227 144.458 25.7324C144.071 26.2422 143.512 26.4971 142.779 26.4971C142.041 26.4971 141.479 26.2422 141.092 25.7324C140.705 25.2227 140.512 24.5283 140.512 23.6494V23.1836ZM149.195 28H151.498V21.9531C151.656 21.5664 151.905 21.25 152.245 21.0039C152.585 20.752 152.972 20.626 153.405 20.626C153.552 20.626 153.687 20.6348 153.81 20.6523C153.933 20.6641 154.05 20.6816 154.161 20.7051V18.7188C154.103 18.6953 154.006 18.6689 153.871 18.6396C153.742 18.6104 153.616 18.5957 153.493 18.5957C153.042 18.5957 152.641 18.7275 152.289 18.9912C151.943 19.249 151.668 19.5596 151.463 19.9229H151.419L151.366 18.8506H149.195V28Z" fill="#4474D1"/>
</svg>
